<svg xmlns="http://www.w3.org/2000/svg" viewBox="0 0 800 600" fill="#61dafb">
  <g transform="translate(400, 300)">
    <g transform="translate(-400, -300)">
      <g transform="translate(200, 150)">
        <rect x="-100" y="-75" width="200" height="150" rx="10" ry="10" fill="#61dafb" />
        <text x="0" y="0" text-anchor="middle" dominant-baseline="middle" font-size="18" font-weight="bold" fill="#ffffff">Demo</text>
      </g>

      <g transform="translate(200, 300)">
        <rect x="-100" y="-75" width="200" height="150" rx="10" ry="10" fill="#61dafb" />
        <text x="0" y="0" text-anchor="middle" dominant-baseline="middle" font-size="18" font-weight="bold" fill="#ffffff">public</text>
        <g transform="translate(0, 50)">
          <rect x="-80" y="-20" width="160" height="40" rx="5" ry="5" fill="#61dafb" />
          <text x="0" y="0" text-anchor="middle" dominant-baseline="middle" font-size="14" fill="#ffffff">App.css</text>
        </g>
        <g transform="translate(0, 100)">
          <rect x="-80" y="-20" width="160" height="40" rx="5" ry="5" fill="#61dafb" />
          <text x="0" y="0" text-anchor="middle" dominant-baseline="middle" font-size="14" fill="#ffffff">index.html</text>
        </g>
        <g transform="translate(0, 150)">
          <rect x="-80" y="-20" width="160" height="40" rx="5" ry="5" fill="#61dafb" />
          <text x="0" y="0" text-anchor="middle" dominant-baseline="middle" font-size="14" fill="#ffffff">images</text>
        </g>
      </g>

      <g transform="translate(600, 300)">
        <rect x="-100" y="-75" width="200" height="150" rx="10" ry="10" fill="#61dafb" />
        <text x="0" y="0" text-anchor="middle" dominant-baseline="middle" font-size="18" font-weight="bold" fill="#ffffff">src</text>
        <g transform="translate(0, 50)">
          <rect x="-80" y="-20" width="160" height="40" rx="5" ry="5" fill="#61dafb" />
          <text x="0" y="0" text-anchor="middle" dominant-baseline="middle" font-size="14" fill="#ffffff">App.js</text>
        </g>
        <g transform="translate(0, 100)">
          <rect x="-80" y="-20" width="160" height="40" rx="5" ry="5" fill="#61dafb" />
          <text x="0" y="0" text-anchor="middle" dominant-baseline="middle" font-size="14" fill="#ffffff">modules</text>
        </g>
        <g transform="translate(0, 150)">
          <rect x="-80" y="-20" width="160" height="40" rx="5" ry="5" fill="#61dafb" />
          <text x="0" y="0" text-anchor="middle" dominant-baseline="middle" font-size="14" fill="#ffffff">pages</text>
        </g>
      </g>

      <g transform="translate(400, 450)">
        <rect x="-80" y="-20" width="160" height="40" rx="5" ry="5" fill="#61dafb" />
        <text x="0" y="0" text-anchor="middle" dominant-baseline="middle" font-size="14" fill="#ffffff">server.js</text>
      </g>
    </g>
  </g>
</svg>

