<svg viewBox="0 0 32 32" xmlns="http://www.w3.org/2000/svg">
  <path d="m32 13.333-4.177 9.333h-1.292l1.552-3.266-2.75-6.068h1.359l1.99 4.651h.026l1.927-4.651zm-17.354 2.886v3.781h-1.313v-9.333h3.474c.828-.021 1.63.266 2.25.807.615.505.953 1.219.943 1.974.01.766-.339 1.5-.943 1.979-.604.531-1.354.792-2.25.792zm-.005-4.401v3.255h2.198c.484.016.958-.161 1.297-.479.339-.302.526-.714.526-1.141 0-.432-.188-.844-.526-1.141-.349-.333-.818-.51-1.297-.495zm7.989 1.515c.833 0 1.495.234 1.979.698s.724 1.099.724 1.906v3.859h-1.083v-.87h-.047c-.469.714-1.089 1.073-1.865 1.073-.667 0-1.219-.203-1.667-.615-.438-.385-.682-.948-.672-1.531 0-.646.234-1.161.708-1.547.469-.38 1.099-.573 1.885-.573.672 0 1.224.13 1.656.385v-.271c.005-.396-.167-.776-.464-1.042-.297-.276-.688-.432-1.094-.427-.63 0-1.13.276-1.5.828l-.995-.646c.547-.818 1.359-1.229 2.432-1.229zm-1.463 4.547c-.005.302.135.583.375.766.25.203.563.313.88.307.474 0 .932-.198 1.271-.547.359-.333.563-.802.563-1.292-.354-.292-.844-.438-1.474-.438-.464 0-.844.115-1.151.344-.307.234-.464.516-.464.859zm-15.724-7.213c1.344-.016 2.646.479 3.641 1.391l-1.552 1.521c-.568-.526-1.318-.813-2.089-.797-1.385.005-2.609.891-3.057 2.198-.229.661-.229 1.38 0 2.042.448 1.307 1.672 2.193 3.057 2.198.734 0 1.365-.182 1.854-.505.568-.375.964-.958 1.083-1.625h-2.938v-2.052h5.13c.063.359.094.719.094 1.083 0 1.625-.594 3-1.62 3.927-.901.813-2.135 1.286-3.604 1.286-2.047.01-3.922-1.125-4.865-2.938-.771-1.505-.771-3.286 0-4.792.943-1.813 2.818-2.948 4.859-2.938z" fill="#61dafb"/>
</svg>

