<svg xmlns="http://www.w3.org/2000/svg" viewBox="0 0 800 600">
  <!-- Main central globe - enlarged -->
  <g transform="translate(400 300)">
    <!-- Wireframe circles for main globe -->
    <circle cx="0" cy="0" r="150" fill="none" stroke="#61dafb" stroke-width="1"/>
    <ellipse cx="0" cy="0" rx="150" ry="50" fill="none" stroke="#61dafb" stroke-width="1"/>
    <ellipse cx="0" cy="0" rx="150" ry="50" fill="none" stroke="#61dafb" stroke-width="1" transform="rotate(60)"/>
    <ellipse cx="0" cy="0" rx="150" ry="50" fill="none" stroke="#61dafb" stroke-width="1" transform="rotate(-60)"/>
    
    <!-- Original + Additional orbital paths and satellites - scaled up proportionally -->
    <g>
      <!-- Original Orbits -->
      <ellipse cx="0" cy="0" rx="200" ry="100" fill="none" stroke="#61dafb" stroke-width="0.5" transform="rotate(30)"/>
      <circle cx="173" cy="50" r="4" fill="#61dafb"/>
      <line x1="0" y1="0" x2="173" y2="50" stroke="#61dafb" stroke-width="0.5" opacity="0.5"/>
      
      <ellipse cx="0" cy="0" rx="225" ry="112" fill="none" stroke="#61dafb" stroke-width="0.5" transform="rotate(-45)"/>
      <circle cx="-159" cy="-79" r="4" fill="#61dafb"/>
      <line x1="0" y1="0" x2="-159" y2="-79" stroke="#61dafb" stroke-width="0.5" opacity="0.5"/>
      
      <ellipse cx="0" cy="0" rx="175" ry="87" fill="none" stroke="#61dafb" stroke-width="0.5" transform="rotate(160)"/>
      <circle cx="-60" cy="151" r="4" fill="#61dafb"/>
      <line x1="0" y1="0" x2="-60" y2="151" stroke="#61dafb" stroke-width="0.5" opacity="0.5"/>
      
      <!-- Additional Orbits -->
      <ellipse cx="0" cy="0" rx="212" ry="106" fill="none" stroke="#61dafb" stroke-width="0.5" transform="rotate(80)"/>
      <circle cx="-209" cy="36" r="4" fill="#61dafb"/>
      <line x1="0" y1="0" x2="-209" y2="36" stroke="#61dafb" stroke-width="0.5" opacity="0.5"/>
      
      <ellipse cx="0" cy="0" rx="187" ry="93" fill="none" stroke="#61dafb" stroke-width="0.5" transform="rotate(-120)"/>
      <circle cx="94" cy="-162" r="4" fill="#61dafb"/>
      <line x1="0" y1="0" x2="94" y2="-162" stroke="#61dafb" stroke-width="0.5" opacity="0.5"/>
      
      <ellipse cx="0" cy="0" rx="237" ry="118" fill="none" stroke="#61dafb" stroke-width="0.5" transform="rotate(15)"/>
      <circle cx="229" cy="59" r="4" fill="#61dafb"/>
      <line x1="0" y1="0" x2="229" y2="59" stroke="#61dafb" stroke-width="0.5" opacity="0.5"/>
    </g>
  </g>
  
  <!-- Partial globe in top left - moved more into corner and enlarged -->
  <g transform="translate(0 0)">
    <circle cx="0" cy="0" r="120" fill="none" stroke="#61dafb" stroke-width="1"/>
    <ellipse cx="0" cy="0" rx="120" ry="40" fill="none" stroke="#61dafb" stroke-width="1"/>
    <!-- Multiple Satellites -->
    <ellipse cx="0" cy="0" rx="165" ry="82" fill="none" stroke="#61dafb" stroke-width="0.5" transform="rotate(45)"/>
    <circle cx="116" cy="116" r="4" fill="#61dafb"/>
    <line x1="0" y1="0" x2="116" y2="116" stroke="#61dafb" stroke-width="0.5" opacity="0.5"/>
    
    <ellipse cx="0" cy="0" rx="180" ry="90" fill="none" stroke="#61dafb" stroke-width="0.5" transform="rotate(-30)"/>
    <circle cx="156" cy="-90" r="4" fill="#61dafb"/>
    <line x1="0" y1="0" x2="156" y2="-90" stroke="#61dafb" stroke-width="0.5" opacity="0.5"/>
    
    <ellipse cx="0" cy="0" rx="150" ry="75" fill="none" stroke="#61dafb" stroke-width="0.5" transform="rotate(160)"/>
    <circle cx="-141" cy="51" r="4" fill="#61dafb"/>
    <line x1="0" y1="0" x2="-141" y2="51" stroke="#61dafb" stroke-width="0.5" opacity="0.5"/>
  </g>
  
  <!-- Partial globe in bottom right - moved more into corner and enlarged -->
  <g transform="translate(800 600)">
    <circle cx="0" cy="0" r="130" fill="none" stroke="#61dafb" stroke-width="1"/>
    <ellipse cx="0" cy="0" rx="130" ry="43" fill="none" stroke="#61dafb" stroke-width="1"/>
    <!-- Multiple Satellites -->
    <ellipse cx="0" cy="0" rx="180" ry="90" fill="none" stroke="#61dafb" stroke-width="0.5" transform="rotate(-30)"/>
    <circle cx="-156" cy="-45" r="4" fill="#61dafb"/>
    <line x1="0" y1="0" x2="-156" y2="-45" stroke="#61dafb" stroke-width="0.5" opacity="0.5"/>
    
    <ellipse cx="0" cy="0" rx="195" ry="97" fill="none" stroke="#61dafb" stroke-width="0.5" transform="rotate(60)"/>
    <circle cx="97" cy="169" r="4" fill="#61dafb"/>
    <line x1="0" y1="0" x2="97" y2="169" stroke="#61dafb" stroke-width="0.5" opacity="0.5"/>
    
    <ellipse cx="0" cy="0" rx="210" ry="105" fill="none" stroke="#61dafb" stroke-width="0.5" transform="rotate(150)"/>
    <circle cx="-182" cy="105" r="4" fill="#61dafb"/>
    <line x1="0" y1="0" x2="-182" y2="105" stroke="#61dafb" stroke-width="0.5" opacity="0.5"/>
    
    <ellipse cx="0" cy="0" rx="165" ry="82" fill="none" stroke="#61dafb" stroke-width="0.5" transform="rotate(-120)"/>
    <circle cx="82" cy="-142" r="4" fill="#61dafb"/>
    <line x1="0" y1="0" x2="82" y2="-142" stroke="#61dafb" stroke-width="0.5" opacity="0.5"/>
  </g>
</svg>

