
<svg xmlns="http://www.w3.org/2000/svg" viewBox="0 0 800 600">
  <!-- Multiple central navigation hubs -->
  <g id="nav-hub">
    <circle cx="0" cy="0" r="40" fill="none" stroke="#61dafb" stroke-width="1"/>
    <circle cx="0" cy="0" r="45" fill="none" stroke="#61dafb" stroke-width="0.5"/>
    <circle cx="0" cy="0" r="50" fill="none" stroke="#61dafb" stroke-width="0.25"/>
    <path d="M -60 0 L 60 0" stroke="#61dafb" stroke-width="0.5" stroke-dasharray="1,3"/>
    <path d="M 0 -60 L 0 60" stroke="#61dafb" stroke-width="0.5" stroke-dasharray="1,3"/>
  </g>
  
  <!-- Multiple navigation hubs across the map -->
  <use href="#nav-hub" transform="translate(400,300)"/>
  <use href="#nav-hub" transform="translate(200,150)"/>
  <use href="#nav-hub" transform="translate(600,450)"/>
  <use href="#nav-hub" transform="translate(150,450)"/>
  <use href="#nav-hub" transform="translate(650,150)"/>
  
  <!-- Complex orbital patterns -->
  <g transform="translate(400,300)">
    <ellipse cx="0" cy="0" rx="350" ry="140" fill="none" stroke="#61dafb" stroke-width="0.5"/>
    <ellipse cx="0" cy="0" rx="300" ry="120" fill="none" stroke="#61dafb" stroke-width="0.5"/>
    <ellipse cx="0" cy="0" rx="250" ry="100" fill="none" stroke="#61dafb" stroke-width="0.5"/>
  </g>
  
  <!-- Secondary orbital systems -->
  <g transform="translate(200,150) rotate(30)">
    <ellipse cx="0" cy="0" rx="180" ry="70" fill="none" stroke="#61dafb" stroke-width="0.5"/>
    <ellipse cx="0" cy="0" rx="150" ry="60" fill="none" stroke="#61dafb" stroke-width="0.5"/>
  </g>
  
  <g transform="translate(600,450) rotate(-45)">
    <ellipse cx="0" cy="0" rx="200" ry="80" fill="none" stroke="#61dafb" stroke-width="0.5"/>
    <ellipse cx="0" cy="0" rx="170" ry="65" fill="none" stroke="#61dafb" stroke-width="0.5"/>
  </g>
  
  <!-- Expanded constellation patterns -->
  <g id="expanded-constellation">
    <circle cx="0" cy="0" r="3" fill="none" stroke="#61dafb" stroke-width="1"/>
    <circle cx="30" cy="-20" r="2" fill="none" stroke="#61dafb" stroke-width="1"/>
    <circle cx="50" cy="20" r="2" fill="none" stroke="#61dafb" stroke-width="1"/>
    <circle cx="20" cy="40" r="2" fill="none" stroke="#61dafb" stroke-width="1"/>
    <circle cx="-20" cy="30" r="2" fill="none" stroke="#61dafb" stroke-width="1"/>
    <line x1="0" y1="0" x2="30" y2="-20" stroke="#61dafb" stroke-width="0.5"/>
    <line x1="30" y1="-20" x2="50" y2="20" stroke="#61dafb" stroke-width="0.5"/>
    <line x1="50" y1="20" x2="20" y2="40" stroke="#61dafb" stroke-width="0.5"/>
    <line x1="20" y1="40" x2="-20" y2="30" stroke="#61dafb" stroke-width="0.5"/>
    <line x1="-20" y1="30" x2="0" y2="0" stroke="#61dafb" stroke-width="0.5"/>
  </g>
  
  <!-- Multiple constellation patterns -->
  <use href="#expanded-constellation" transform="translate(100,100)"/>
  <use href="#expanded-constellation" transform="translate(700,500) scale(-1,1)"/>
  <use href="#expanded-constellation" transform="translate(300,400) rotate(45)"/>
  <use href="#expanded-constellation" transform="translate(500,200) rotate(-30)"/>
  <use href="#expanded-constellation" transform="translate(200,300) scale(0.7)"/>
  <use href="#expanded-constellation" transform="translate(600,100) scale(1.2)"/>
  
  <!-- Complex planetary systems -->
  <g id="planetary-system">
    <circle cx="0" cy="0" r="20" fill="none" stroke="#61dafb" stroke-width="1"/>
    <ellipse cx="0" cy="0" rx="20" ry="5" fill="none" stroke="#61dafb" stroke-width="0.5"/>
    <circle cx="0" cy="0" r="25" fill="none" stroke="#61dafb" stroke-width="0.5"/>
    <circle cx="0" cy="0" r="30" fill="none" stroke="#61dafb" stroke-width="0.25" stroke-dasharray="1,2"/>
    <path d="M -40 0 Q 0 -15, 40 0" fill="none" stroke="#61dafb" stroke-width="0.5"/>
    <path d="M -40 0 Q 0 15, 40 0" fill="none" stroke="#61dafb" stroke-width="0.5"/>
  </g>
  
  <!-- Multiple planetary systems -->
  <use href="#planetary-system" transform="translate(700,300) rotate(30)"/>
  <use href="#planetary-system" transform="translate(100,400) rotate(-45)"/>
  <use href="#planetary-system" transform="translate(300,100) rotate(15)"/>
  <use href="#planetary-system" transform="translate(500,500) rotate(-60)"/>
  
  <!-- Navigation grid overlay -->
  <path d="M 0 150 Q 400 100, 800 150" fill="none" stroke="#61dafb" stroke-width="0.25"/>
  <path d="M 0 300 Q 400 250, 800 300" fill="none" stroke="#61dafb" stroke-width="0.25"/>
  <path d="M 0 450 Q 400 400, 800 450" fill="none" stroke="#61dafb" stroke-width="0.25"/>
  <path d="M 150 0 Q 100 300, 150 600" fill="none" stroke="#61dafb" stroke-width="0.25"/>
  <path d="M 400 0 Q 350 300, 400 600" fill="none" stroke="#61dafb" stroke-width="0.25"/>
  <path d="M 650 0 Q 600 300, 650 600" fill="none" stroke="#61dafb" stroke-width="0.25"/>
  
  <!-- Connection pathways -->
  <g stroke="#61dafb" stroke-width="0.5" stroke-dasharray="2,4">
    <path d="M 200 150 L 400 300" />
    <path d="M 400 300 L 600 450" />
    <path d="M 400 300 L 150 450" />
    <path d="M 400 300 L 650 150" />
    <path d="M 200 150 L 650 150" />
    <path d="M 150 450 L 600 450" />
  </g>
  
  <!-- Star clusters -->
  <g id="dense-star-cluster">
    <circle cx="0" cy="0" r="1" fill="none" stroke="#61dafb" stroke-width="0.5"/>
    <circle cx="5" cy="5" r="1" fill="none" stroke="#61dafb" stroke-width="0.5"/>
    <circle cx="-3" cy="7" r="1" fill="none" stroke="#61dafb" stroke-width="0.5"/>
    <circle cx="7" cy="-2" r="1" fill="none" stroke="#61dafb" stroke-width="0.5"/>
    <circle cx="-5" cy="-5" r="1" fill="none" stroke="#61dafb" stroke-width="0.5"/>
    <circle cx="10" cy="3" r="1" fill="none" stroke="#61dafb" stroke-width="0.5"/>
    <circle cx="-8" cy="2" r="1" fill="none" stroke="#61dafb" stroke-width="0.5"/>
  </g>
  
  <!-- Multiple star clusters -->
  <use href="#dense-star-cluster" transform="translate(100,100)"/>
  <use href="#dense-star-cluster" transform="translate(700,500)"/>
  <use href="#dense-star-cluster" transform="translate(300,200)"/>
  <use href="#dense-star-cluster" transform="translate(500,400)"/>
  <use href="#dense-star-cluster" transform="translate(200,500)"/>
  <use href="#dense-star-cluster" transform="translate(600,100)"/>
  <use href="#dense-star-cluster" transform="translate(400,150)"/>
  <use href="#dense-star-cluster" transform="translate(150,300)"/>
  
  <!-- Geometric overlays -->
  <g transform="rotate(30,400,300)" stroke="#61dafb" stroke-width="0.25" fill="none">
    <rect x="300" y="200" width="200" height="200"/>
    <circle cx="400" cy="300" r="140"/>
    <path d="M 300 300 L 500 300 M 400 200 L 400 400"/>
  </g>
  
  <!-- Additional navigation elements -->
  <g transform="translate(400,300)">
    <path d="M -20 -20 L 20 -20 L 0 20 Z" fill="none" stroke="#61dafb" stroke-width="0.5"/>
    <circle cx="0" cy="0" r="25" fill="none" stroke="#61dafb" stroke-width="0.5" stroke-dasharray="1,3"/>
  </g>
</svg>
